<svg width="150" height="150" viewBox="0 0 150 150" fill="none" xmlns="http://www.w3.org/2000/svg">
<path d="M149.524 60.6083C147.684 45.8099 140.645 31.8302 130.423 21.6744C115.869 7.20755 95.6198 0.21249 75.7112 0.00522939C61.2348 -0.150216 46.6124 3.15559 33.8885 10.4926C21.1645 17.8297 10.3973 29.3223 4.43927 43.3642C0.856693 51.7997 -0.983274 61.2923 0.535428 70.4118C4.50742 62.8468 8.46968 55.2817 12.4417 47.7271C13.2594 46.1623 14.1161 44.556 15.4304 43.4368C19.1785 40.2242 25.8569 43.4057 26.11 48.5147C30.1891 44.9601 37.5392 48.4525 37.7923 54.0485C40.4208 51.6961 44.2468 52.5873 46.1549 54.432C49.4259 57.5927 49.0755 62.0281 47.5178 65.6344C44.7627 72.0388 40.7421 77.9975 37.6657 84.2568C34.6381 90.4125 31.9998 96.7443 29.566 103.19C28.1836 106.869 26.8401 110.734 27.1906 114.672C27.8915 122.6 37.1108 126.144 43.098 128.59C50.8084 131.751 58.9957 133.595 67.2512 133.999C70.7364 134.176 74.4553 134.165 77.3467 136.248C81.4355 139.191 82.1267 146.228 78.6999 150C93.0886 147.42 106.406 140.984 117.602 131.606C137.326 115.066 152.961 88.2259 149.524 60.6083ZM81.0169 109.667C77.7264 115.481 71.1745 115.729 67.4654 110.185C64.2722 105.418 64.3696 98.0708 67.6796 93.397C71.0674 88.5989 76.5387 88.4746 80.1212 93.1276C82.1267 95.7287 82.9737 98.7444 82.925 101.801C82.9834 104.796 82.3409 107.335 81.0169 109.667ZM107.74 69.2822C107.244 70.2045 106.358 70.9403 105.355 71.0128C104.518 71.075 103.71 70.6812 102.95 70.2874C98.7545 68.163 94.5489 66.0386 90.353 63.9038C89.1556 63.3027 87.8608 62.5773 87.3935 61.2716C87.0041 60.2042 87.2864 58.971 87.851 57.9968C88.4254 57.0227 89.2529 56.2766 90.0804 55.5304C93.2541 52.6806 96.4181 49.8308 99.5918 46.9913C101.247 45.499 102.892 44.2244 104.742 46.1933C105.375 46.8773 105.968 47.7271 105.949 48.6805C105.929 49.8515 105.034 50.7634 104.206 51.5407C101.461 54.1003 98.7253 56.6497 95.98 59.2093C99.1537 60.8571 102.318 62.5048 105.491 64.1525C105.949 64.3909 106.416 64.6396 106.845 64.9505C107.292 65.2821 107.692 65.6862 107.945 66.2044C108.373 67.1578 108.237 68.3495 107.74 69.2822Z" fill="currentColor"/>
</svg>
