<svg width="149" height="45" viewBox="0 0 149 45" fill="none" xmlns="http://www.w3.org/2000/svg">
<path d="M146.547 0.12204C147.073 0.27223 147.56 0.557591 147.917 0.978123C148.834 2.04447 148.888 3.58242 148.894 4.9882C148.927 11.5815 148.963 18.1779 148.996 24.7712C149.014 28.1805 149.02 31.6649 147.89 34.882C146.117 39.9314 141.432 43.8363 136.146 44.6714C125.561 46.3475 116.404 36.0355 119.241 25.7324C120.485 21.2177 123.962 17.3759 128.335 15.6907C132.708 14.0056 137.865 14.5163 141.82 17.0274C142.057 17.1776 142.391 17.3308 142.592 17.1356C142.715 17.0184 142.721 16.8292 142.718 16.661C142.679 12.741 142.64 8.82405 142.598 4.90409C142.583 3.46227 142.628 1.85824 143.626 0.815918C144.362 0.0529525 145.531 -0.166325 146.547 0.12204ZM124.963 29.7125C124.912 34.4375 128.822 38.6488 133.808 38.5857C138.751 38.5226 142.52 34.5486 142.628 29.8987C142.745 24.8253 138.598 20.9684 133.784 20.9474C128.825 20.9264 124.918 24.9935 124.963 29.7125Z" fill="#1DA1F2"/>
<path d="M63.5111 0.23615C64.4157 0.413374 65.2662 1.02315 65.7621 2.14657C65.9394 2.54908 66.1257 3.24596 66.1257 3.68451C66.1407 9.74017 66.1317 15.3423 66.1257 21.3979C66.1257 21.7704 65.9574 24.0293 66.5975 23.6868C66.7448 23.6087 66.874 23.4946 67.0123 23.4015C67.5712 23.029 68.1272 22.6595 68.6862 22.2901C69.5337 21.7283 70.3842 21.1666 71.2347 20.6079C72.0551 20.0672 72.8755 19.5266 73.696 18.9859C74.874 18.2079 76.0491 17.4209 77.2362 16.6549C78.1828 16.0452 79.1265 15.4294 80.1092 14.8797C80.8305 14.4772 81.6028 14.5162 82.3602 14.8737C83.2167 15.2792 83.8387 15.922 84.1573 16.7961C84.6021 18.0096 84.2174 19.1 83.2647 19.9411C82.7208 20.4217 82.0867 20.8032 81.4826 21.2147C80.7313 21.7283 79.974 22.236 79.2106 22.7316C78.0055 23.5156 76.7944 24.2906 75.5863 25.0686C74.853 25.5432 74.1137 26.0088 73.3864 26.4924C73.0378 26.7237 73.0228 27.0631 73.2963 27.3875C74.4142 28.7152 75.5322 30.0459 76.6471 31.3796C78.0175 33.0166 79.3909 34.6477 80.7493 36.2908C81.7711 37.5283 82.817 38.7539 83.7696 40.0425C84.6622 41.25 84.4999 42.6438 83.4481 43.7432C82.862 44.356 82.1768 44.8276 81.3023 44.8636C80.2835 44.9057 79.5112 44.368 78.8861 43.6321C77.3203 41.7847 75.7786 39.9164 74.2279 38.057C72.5299 36.0234 70.832 33.9899 69.131 31.9563C68.7854 31.5418 68.4277 31.1362 68.0761 30.7277C67.8327 30.4454 67.421 30.3793 67.0964 30.5655C66.7147 30.7878 66.1888 30.962 66.1498 31.4006C66.1227 31.692 66.1227 32.8064 66.1227 33.347C66.1227 36.0234 66.1227 38.6548 66.1227 41.5835C66.1227 43.7522 63.5141 45.5695 61.5487 44.4551C60.4307 43.8213 59.7846 42.5897 59.7876 41.3041C59.7996 28.7002 59.7996 16.0932 59.7906 3.48927C59.7876 1.17634 61.7531 -0.109287 63.5111 0.23615Z" fill="#1DA1F2"/>
<path d="M103.25 32.9686C99.9859 32.9566 96.7192 32.9475 93.4555 32.9355C93.2271 32.9355 92.9325 32.9836 92.8845 33.2059C92.8634 33.299 92.8995 33.3981 92.9355 33.4852C93.9123 35.9333 96.1872 37.7626 98.7417 38.4235C101.293 39.0843 104.073 38.6337 106.411 37.4142C107.039 37.0868 107.652 36.6993 108.344 36.5521C109.461 36.3118 110.697 36.7774 111.379 37.6935C112.061 38.6097 112.148 39.9284 111.598 40.9286C111.193 41.6646 110.498 42.1932 109.789 42.6438C106.537 44.7044 102.561 45.4073 98.7688 44.7765C97.2631 44.5242 95.7935 44.0466 94.4231 43.3737C91.7394 42.0551 89.4164 39.9734 87.9288 37.3691C84.9746 32.1936 85.4855 25.2518 89.1639 20.5629C92.8394 15.8679 99.46 13.7172 105.194 15.3513C110.928 16.9823 115.424 22.2991 116.079 28.2196C116.226 29.5412 116.139 31.0281 115.199 31.9683C114.225 32.9415 112.692 32.9986 111.316 32.9956C108.626 32.9866 105.936 32.9776 103.25 32.9686ZM101.05 26.7507C103.556 26.7597 106.063 26.7657 108.569 26.7747C108.821 26.7747 109.122 26.7507 109.245 26.5314C109.356 26.3332 109.257 26.0839 109.152 25.8826C107.616 22.9809 104.413 21.0405 101.125 21.0225C97.8371 21.0044 94.7177 22.9719 93.0467 25.7985C92.4697 26.7777 94.8168 26.7327 95.6493 26.7357C97.1399 26.7417 98.6305 26.7447 100.121 26.7507C100.434 26.7477 100.743 26.7507 101.05 26.7507Z" fill="#1DA1F2"/>
<path d="M29.9844 35.4377C29.9454 36.9006 29.9093 38.3664 29.9694 39.8172C30.0175 41.0007 30.1167 42.2563 29.5487 43.2956C29.0107 44.2839 27.8717 44.9147 26.7447 44.8486C25.6178 44.7825 24.5659 44.0196 24.1482 42.9712C24.04 42.7009 23.8988 42.3585 23.6103 42.3555C23.478 42.3555 23.3578 42.4336 23.2466 42.5087C15.8657 47.4469 5.10684 44.4191 1.35928 36.3899C1.34124 36.3509 1.32321 36.3148 1.30819 36.2758C-0.549067 32.1966 -0.410825 27.2794 1.60871 23.2753C4.22029 18.0878 10.0144 14.6454 15.8206 14.9187C21.6268 15.1921 27.1054 19.2112 29.0257 24.6961C30.2248 28.1204 30.0836 31.7791 29.9844 35.4377ZM15.7034 21.1156C12.9927 21.1126 11.0963 21.8275 9.45546 23.1642C8.25636 24.1404 7.33675 25.357 6.78979 26.8168C6.02946 28.8534 5.94531 30.896 6.69362 32.9746C7.29768 34.6507 8.3345 35.9934 9.75599 37.0057C10.922 37.8347 12.2293 38.3694 13.6869 38.5857C15.9769 38.9281 18.0565 38.5196 20.019 37.2941C21.5456 36.3419 22.5855 34.9992 23.2015 33.3681C24.3165 30.4123 23.9739 27.5557 22.2218 24.9214C20.5509 22.4102 18.1196 21.2267 15.7034 21.1156Z" fill="#1DA1F2"/>
<path d="M44.7644 44.6053C42.9312 44.5783 41.113 44.2268 39.5112 43.6201C38.1318 43.0974 36.8065 42.4276 35.7246 41.3912C35.1836 40.8716 34.6427 40.3399 34.1919 39.7452C33.5397 38.8831 33.5758 37.9729 34.2009 37.0778C34.7929 36.2337 35.5683 35.8072 36.6201 35.8883C37.2843 35.9393 37.7651 36.3359 38.2039 36.7414C39.8658 38.2763 41.7862 39.1684 44.0672 39.1865C45.0139 39.1925 45.9665 39.1564 46.9042 39.0453C47.959 38.9191 48.8546 38.4475 49.5578 37.6125C50.0206 37.0598 50.1529 35.3266 49.4436 34.6988C48.7855 34.113 48.0882 33.6505 47.2618 33.3531C43.1446 31.8692 37.3775 30.5085 35.4661 25.9968C34.829 24.4979 34.835 22.9659 35.1205 21.443C35.6795 18.4602 38.5285 16.4177 41.3084 15.7358C43.2227 15.2672 45.128 15.1891 47.0574 15.5375C49.9184 16.0542 52.7254 17.3849 54.3392 19.893C54.7509 20.5329 54.6607 21.6653 54.216 22.2841C53.5909 23.1552 52.2986 24.0473 51.2257 23.4135C50.6818 23.0921 50.1529 22.7346 49.669 22.3291C48.3918 21.2628 46.8981 20.7762 45.2723 20.665C44.1423 20.5869 43.0214 20.641 41.9395 21.0765C40.5781 21.6262 39.8658 23.3054 40.9537 24.5249C41.3054 24.9184 41.7291 25.2789 42.1829 25.5522C43.7907 26.5194 45.6239 26.931 47.3549 27.6038C48.5901 28.0844 49.7862 28.6732 50.9913 29.2319C52.0041 29.7035 52.8396 30.4214 53.5999 31.2294C54.6818 32.3798 55.3129 33.7165 55.4271 35.3055C55.6044 37.7416 54.8741 40.1266 53.0109 41.8388C50.8381 43.8213 47.7847 44.6504 44.7644 44.6053Z" fill="#1DA1F2"/>
</svg>
